# xmcd CD database file
#
# Track frame offsets:
#	183
#	21238
#	33260
#	48638
#	56055
#	59873
#	90585
#	97850
#	117103
#	136810
#	154558
#	157178
#	180898
#
# Disc length: 2514 seconds
#
# Revision: 24
# Processed by: cddbd v1.5.2PL0 Copyright (c) Steve Scherf et al.
# Submitted via: CDex 1.51
#
DISCID=a409d00d
DTITLE=PINK FLOYD - THE WALL 2
DYEAR=0
DGENRE=New Age
TTITLE0=HEY YOU
TTITLE1=IS THERE ANY BODY OUT THERE
TTITLE2=NOBODY HOME
TTITLE3=VERA
TTITLE4=BRING THE BOYS BACK HOME
TTITLE5=COMFORTABLY NUMB
TTITLE6=THE SHOW MUST GO ON
TTITLE7=IN THE FLESH
TTITLE8=RUN LIKE HELL
TTITLE9=WAITING FOR THE WORMS
TTITLE10=STOP
TTITLE11=THE TRIAL
TTITLE12=OUTSIDE THE WALL
EXTD=YEAR: 0
EXTT0=
EXTT1=
EXTT2=
EXTT3=
EXTT4=
EXTT5=
EXTT6=
EXTT7=
EXTT8=
EXTT9=
EXTT10=
EXTT11=
EXTT12=
PLAYORDER=
